<?xml version="1.0" standalone="no"?>
<!DOCTYPE svg PUBLIC "-//W3C//DTD SVG 20010904//EN"
 "http://www.w3.org/TR/2001/REC-SVG-20010904/DTD/svg10.dtd">
<svg version="1.0" xmlns="http://www.w3.org/2000/svg"
 width="1815.000000pt" height="1044.000000pt" viewBox="0 0 1815.000000 1044.000000"
 preserveAspectRatio="xMidYMid meet">

<g transform="translate(0.000000,1044.000000) scale(0.100000,-0.100000)"
fill="#000000" stroke="none">
<path d="M11989 9350 c-316 -29 -640 -168 -889 -383 -354 -305 -556 -815 -511
-1294 36 -395 180 -704 455 -978 148 -147 259 -226 441 -316 234 -115 414
-155 655 -146 158 6 273 24 408 63 535 155 934 567 1090 1124 43 154 56 265
49 437 -8 199 -38 332 -129 573 -62 164 -57 233 23 293 29 21 95 33 132 23 30
-7 74 -50 97 -96 22 -42 102 -306 136 -445 127 -523 32 -1036 -269 -1457 -199
-278 -453 -499 -732 -638 -254 -127 -424 -169 -705 -177 -142 -4 -212 -1 -300
11 -330 48 -684 185 -942 366 -123 85 -327 290 -404 405 -196 290 -281 556
-318 997 -20 231 -38 313 -91 424 -68 141 -154 206 -253 188 -76 -13 -124 -58
-179 -169 -44 -87 -62 -182 -74 -387 -11 -197 -35 -360 -74 -505 -191 -701
-733 -1214 -1431 -1353 -137 -28 -425 -38 -570 -21 -314 37 -616 143 -846 298
-403 270 -687 703 -795 1210 -25 116 -27 148 -27 343 0 187 3 229 22 320 33
149 74 266 137 389 53 102 168 271 184 271 5 0 26 -34 47 -77 38 -74 39 -79
39 -182 0 -92 -4 -120 -32 -207 -51 -157 -73 -262 -82 -391 -32 -422 109 -847
386 -1166 194 -222 474 -391 781 -468 528 -134 1112 28 1497 415 210 210 349
468 418 774 18 83 22 128 22 317 0 247 -13 330 -82 528 -187 543 -672 938
-1246 1016 -129 18 -350 14 -482 -9 -332 -57 -675 -239 -852 -453 -71 -86
-133 -124 -180 -112 -15 3 -54 31 -87 61 -110 100 -176 126 -230 91 -38 -25
-208 -391 -264 -567 -239 -755 0 -1528 637 -2062 504 -421 1086 -543 1763
-369 530 137 962 495 1217 1007 142 286 221 625 206 889 -19 317 67 457 254
415 43 -10 65 -22 98 -54 63 -64 75 -117 77 -360 2 -178 6 -216 30 -326 147
-665 507 -1121 1096 -1386 205 -92 404 -151 610 -180 160 -22 464 -15 605 16
325 70 634 234 925 493 485 432 723 1126 610 1778 -41 242 -114 426 -249 632
-90 136 -146 197 -182 197 -12 0 -50 -28 -88 -65 -67 -64 -120 -95 -163 -95
-43 1 -106 38 -180 107 -206 190 -502 343 -773 398 -77 16 -274 36 -325 33
-14 0 -64 -4 -111 -8z m434 -110 c294 -62 554 -200 757 -402 152 -151 210
-260 210 -391 -1 -201 -165 -427 -349 -481 -111 -33 -174 -24 -1081 153 -423
83 -510 94 -624 80 -126 -16 -216 -64 -280 -151 -115 -156 -109 -483 14 -745
156 -333 505 -591 889 -658 110 -20 307 -19 411 1 46 8 119 29 164 45 162 59
396 221 396 274 0 7 3 20 6 29 4 12 0 16 -15 16 -33 0 -74 -25 -140 -84 -99
-88 -256 -159 -421 -190 -105 -20 -304 -21 -407 -1 -515 98 -893 513 -896 985
-1 97 2 124 21 171 31 79 81 132 159 171 61 30 75 32 187 36 147 5 293 -18
741 -115 421 -91 561 -113 708 -113 207 0 319 42 437 161 53 53 143 188 164
244 6 19 17 -3 52 -104 88 -261 91 -543 8 -818 -154 -512 -561 -879 -1104
-994 -139 -30 -418 -33 -555 -6 -316 62 -574 195 -786 406 -112 112 -159 171
-228 287 -206 350 -251 824 -116 1229 36 107 102 250 153 329 136 212 344 401
562 511 128 65 321 123 480 145 106 15 371 4 483 -20z m-4388 -56 c320 -48
608 -196 832 -427 194 -200 319 -433 384 -716 30 -129 37 -387 14 -522 -51
-309 -193 -579 -429 -815 -223 -222 -477 -363 -766 -425 -152 -33 -365 -33
-510 0 -221 49 -434 138 -602 253 -51 34 -143 112 -204 173 -256 253 -395 570
-411 941 -5 108 7 375 23 538 l6 58 37 -53 c154 -225 301 -343 478 -385 94
-22 257 -14 384 19 111 29 373 125 649 239 427 176 600 210 761 149 68 -26
138 -92 173 -164 50 -101 67 -197 70 -377 2 -173 14 -233 35 -178 39 102 46
146 45 273 0 121 -2 136 -32 213 -17 46 -56 121 -87 168 -100 150 -207 202
-392 191 -150 -9 -254 -44 -757 -256 -285 -121 -469 -178 -650 -202 -225 -29
-391 52 -490 241 -94 179 -86 332 27 502 63 96 219 245 341 326 323 217 682
296 1071 236z"/>
<path d="M5009 7171 c-185 -72 -670 -550 -1305 -1286 -462 -535 -561 -658
-860 -1080 -85 -121 -165 -230 -177 -242 -28 -28 -173 -85 -444 -174 -342
-113 -480 -175 -508 -230 -8 -15 -15 -50 -15 -78 0 -39 6 -56 26 -80 38 -45
79 -42 227 18 119 47 338 121 405 136 33 7 33 6 21 -16 -24 -47 -120 -201
-280 -454 -397 -625 -609 -1013 -609 -1113 0 -30 7 -45 35 -72 73 -71 157 -36
248 102 53 81 91 145 367 623 154 267 357 598 514 840 157 242 173 264 215
281 74 31 361 127 507 169 256 74 826 206 838 194 2 -2 -44 -245 -104 -539
-143 -710 -191 -1043 -194 -1360 -1 -185 12 -237 78 -305 70 -73 152 -69 189
8 14 28 21 75 27 195 25 456 185 1418 322 1935 26 101 35 120 55 128 33 12
221 29 332 29 l94 0 37 39 c41 43 66 113 55 159 -15 71 -75 87 -293 77 l-164
-7 7 34 c67 334 255 935 470 1508 113 301 135 386 117 448 -16 54 -48 91 -96
113 -51 23 -78 23 -137 0z m-275 -852 c-69 -189 -152 -416 -184 -504 -32 -89
-102 -307 -155 -485 -53 -179 -98 -326 -99 -328 -2 -2 -111 -27 -242 -57 -132
-30 -365 -91 -519 -134 -315 -90 -435 -121 -435 -114 0 21 195 315 320 483
324 434 870 1051 1122 1266 100 86 312 237 316 225 1 -4 -54 -162 -124 -352z"/>
<path d="M15414 7160 c-33 -13 -61 -60 -93 -156 -16 -49 -31 -97 -33 -107 -2
-11 -38 -33 -101 -62 -233 -104 -374 -202 -419 -289 -42 -81 -22 -186 34 -186
11 0 75 26 141 59 67 32 132 61 144 65 l22 7 -26 -77 c-47 -140 -308 -647
-524 -1020 l-210 -361 -57 23 c-31 13 -67 24 -80 24 -56 0 -124 -62 -143 -132
-12 -46 -7 -94 23 -214 l20 -81 -127 -229 c-290 -526 -569 -1128 -705 -1520
-80 -233 -78 -325 8 -361 41 -17 105 -12 151 11 33 18 72 101 151 330 125 361
357 886 587 1326 70 132 88 160 94 145 312 -755 476 -1103 716 -1525 150 -262
194 -325 238 -336 30 -8 115 36 150 78 48 57 37 95 -97 314 -63 104 -133 223
-155 264 -54 98 -494 1027 -544 1149 -44 107 -114 317 -125 375 -6 34 -5 38
12 33 45 -13 329 -18 454 -8 428 35 872 177 1230 393 432 260 748 652 840
1041 62 262 39 497 -66 678 -46 79 -151 185 -224 226 -213 121 -528 132 -909
33 -63 -17 -119 -30 -125 -30 -6 0 -21 16 -34 35 -37 58 -97 95 -151 94 -25 0
-56 -4 -67 -9z m1059 -334 c135 -37 244 -122 287 -220 116 -272 -20 -636 -370
-986 -340 -341 -806 -576 -1257 -635 -117 -15 -417 -20 -485 -7 l-37 7 56 95
c165 281 542 1000 704 1342 56 117 106 216 112 220 35 22 237 105 337 138 170
57 257 70 440 66 103 -2 175 -9 213 -20z"/>
<path d="M6078 5155 c-43 -29 -89 -90 -153 -205 -26 -47 -114 -197 -195 -335
-267 -452 -425 -746 -690 -1274 -535 -1071 -1028 -2216 -1056 -2454 -6 -49 -3
-61 19 -99 34 -58 67 -76 104 -57 39 21 74 83 128 226 142 379 362 911 545
1313 93 205 305 648 314 657 2 3 26 -12 53 -33 26 -20 77 -51 113 -68 56 -26
76 -30 150 -30 110 0 172 15 295 74 328 155 640 502 874 970 158 317 209 534
167 712 -32 138 -128 198 -291 183 -126 -12 -201 -45 -447 -198 -60 -37 -108
-64 -108 -61 0 3 59 108 132 232 72 125 142 250 154 277 64 136 -3 241 -108
170z m339 -671 c15 -12 35 -34 43 -50 22 -42 18 -154 -9 -243 -135 -443 -541
-985 -832 -1109 -156 -67 -323 -49 -410 44 l-22 24 25 47 c14 27 90 169 167
316 78 148 167 309 197 358 188 303 429 544 618 616 78 30 181 28 223 -3z"/>
<path d="M8088 5155 c-43 -29 -89 -90 -153 -205 -26 -47 -114 -197 -195 -335
-267 -453 -428 -749 -690 -1275 -535 -1069 -1028 -2215 -1056 -2453 -6 -49 -3
-61 19 -99 34 -58 67 -76 104 -57 39 21 74 83 128 226 141 377 361 909 545
1313 93 205 305 648 314 657 2 3 26 -12 53 -33 26 -20 77 -51 113 -68 56 -26
76 -30 150 -30 110 0 172 15 295 74 328 155 640 502 874 970 158 317 209 534
167 712 -32 138 -128 198 -291 183 -126 -12 -201 -45 -447 -198 -60 -37 -108
-64 -108 -61 0 3 59 108 132 232 72 125 142 250 154 277 64 136 -3 241 -108
170z m339 -671 c15 -12 35 -34 43 -50 22 -42 18 -154 -9 -243 -135 -443 -541
-985 -832 -1109 -156 -67 -323 -49 -410 44 l-22 24 25 47 c14 27 90 169 167
316 78 148 167 309 197 358 188 303 429 544 618 616 78 30 181 28 223 -3z"/>
<path d="M12398 4930 c-190 -34 -385 -157 -594 -371 -271 -280 -498 -685 -596
-1066 -31 -120 -33 -138 -33 -298 0 -170 0 -170 31 -236 65 -136 146 -193 274
-194 65 0 85 5 140 32 80 40 158 103 228 186 70 81 195 268 273 407 34 61 64
109 66 106 3 -2 0 -53 -6 -113 -20 -210 -23 -317 -12 -383 31 -176 164 -323
316 -351 72 -13 116 -6 154 27 38 32 48 78 28 127 -13 30 -29 43 -95 76 -44
22 -94 55 -112 73 -43 42 -78 120 -91 200 -29 180 82 559 278 945 56 112 108
221 114 243 11 37 10 44 -19 100 l-31 60 26 63 c36 87 42 181 15 234 -55 107
-200 161 -354 133z m57 -299 c48 -22 97 -69 136 -130 l28 -45 -57 -52 c-67
-60 -121 -152 -300 -509 -289 -576 -483 -815 -665 -815 -199 0 -230 259 -77
642 109 274 359 645 530 787 152 126 299 171 405 122z"/>
<path d="M10165 4825 c-299 -65 -776 -500 -1003 -915 -126 -231 -191 -514
-163 -720 53 -406 476 -506 981 -233 297 160 660 476 809 706 63 95 65 167 5
167 -39 0 -65 -22 -206 -174 -213 -230 -374 -369 -539 -467 -269 -160 -555
-172 -698 -29 -62 62 -83 121 -79 220 l3 73 95 32 c293 98 527 240 725 440
128 129 218 256 299 420 71 144 86 194 86 287 0 75 -27 130 -79 165 -65 44
-129 52 -236 28z m19 -275 c32 -12 56 -58 56 -107 -1 -98 -118 -282 -290 -453
-124 -125 -238 -208 -364 -265 -87 -40 -276 -107 -276 -99 0 17 154 322 199
394 142 228 346 430 516 511 62 30 115 36 159 19z"/>
</g>
</svg>
